<?xml version="1.0" encoding="UTF-8" standalone="no"?>
<!-- Created with Inkscape (http://www.inkscape.org/) -->

<svg
   xmlns:dc="http://purl.org/dc/elements/1.1/"
   xmlns:cc="http://creativecommons.org/ns#"
   xmlns:rdf="http://www.w3.org/1999/02/22-rdf-syntax-ns#"
   xmlns:svg="http://www.w3.org/2000/svg"
   xmlns="http://www.w3.org/2000/svg"
   xmlns:xlink="http://www.w3.org/1999/xlink"
   xmlns:sodipodi="http://sodipodi.sourceforge.net/DTD/sodipodi-0.dtd"
   xmlns:inkscape="http://www.inkscape.org/namespaces/inkscape"
   id="svg2"
   version="1.1"
   inkscape:version="0.48.5 r10040"
   width="128"
   height="128"
   sodipodi:docname="deeplock.svg"
   inkscape:export-filename="/home/duzeru/Downloads/deeplock/usr/share/icons/hicolor/24x24/status/deeplock.png"
   inkscape:export-xdpi="90"
   inkscape:export-ydpi="90">
  <metadata
     id="metadata8">
    <rdf:RDF>
      <cc:Work
         rdf:about="">
        <dc:format>image/svg+xml</dc:format>
        <dc:type
           rdf:resource="http://purl.org/dc/dcmitype/StillImage" />
        <dc:title />
      </cc:Work>
    </rdf:RDF>
  </metadata>
  <defs
     id="defs6">
    <linearGradient
       inkscape:collect="always"
       xlink:href="#linearGradient3879"
       id="linearGradient3885"
       x1="108.20339"
       y1="255.72881"
       x2="167.05086"
       y2="205.83051"
       gradientUnits="userSpaceOnUse"
       gradientTransform="matrix(1.057723,0,0,1.2139928,-10.910625,-47.354077)" />
    <linearGradient
       inkscape:collect="always"
       id="linearGradient3879">
      <stop
         style="stop-color:#ffffff;stop-opacity:1;"
         offset="0"
         id="stop3881" />
      <stop
         style="stop-color:#ffffff;stop-opacity:0;"
         offset="1"
         id="stop3883" />
    </linearGradient>
    <linearGradient
       y2="205.83051"
       x2="167.05086"
       y1="255.72881"
       x1="108.20339"
       gradientTransform="matrix(1.057723,0,0,1.2139928,-10.910625,-47.354077)"
       gradientUnits="userSpaceOnUse"
       id="linearGradient4063"
       xlink:href="#linearGradient3879"
       inkscape:collect="always" />
    <linearGradient
       inkscape:collect="always"
       xlink:href="#linearGradient3879"
       id="linearGradient3069"
       gradientUnits="userSpaceOnUse"
       gradientTransform="matrix(0.5288615,0,0,0.6069964,-6.0379305,-23.67704)"
       x1="108.20339"
       y1="255.72881"
       x2="167.05086"
       y2="205.83051" />
  </defs>
  <sodipodi:namedview
     pagecolor="#ffffff"
     bordercolor="#666666"
     borderopacity="1"
     objecttolerance="10"
     gridtolerance="10"
     guidetolerance="10"
     inkscape:pageopacity="0"
     inkscape:pageshadow="2"
     inkscape:window-width="1366"
     inkscape:window-height="701"
     id="namedview4"
     showgrid="false"
     inkscape:zoom="2.4583333"
     inkscape:cx="23.361846"
     inkscape:cy="30.223142"
     inkscape:window-x="0"
     inkscape:window-y="0"
     inkscape:window-maximized="1"
     inkscape:current-layer="svg2" />
  <rect
     id="rect907"
     style="line-height:100%;fill:#2980b9;stroke:none"
     height="127.83433"
     y="0.1656723"
     x="-2.6975369e-08"
     width="128" />
  <rect
     id="rect920"
     style="line-height:100%;fill:#37353a;stroke:none"
     height="14.211144"
     y="113.78886"
     x="1.4191444e-05"
     width="127.99997" />
  <rect
     id="rect827"
     style="line-height:100%;fill:#ffffff;stroke:none"
     height="3.8867111"
     y="118.95959"
     x="101.30324"
     width="3.9437034" />
  <rect
     id="rect5248"
     style="line-height:100%;fill:#d45500;stroke:none"
     height="5.9432611"
     y="117.22452"
     x="20.134735"
     width="4.6898322" />
  <rect
     id="rect5250"
     style="line-height:100%;fill:#349ba3;stroke:none"
     height="5.9432611"
     y="117.22452"
     x="29.102299"
     width="4.6898322" />
  <rect
     id="rect5252"
     style="line-height:100%;fill:#cccccc;stroke:none"
     height="5.9432611"
     y="117.22452"
     x="11.707554"
     width="4.6898322" />
  <rect
     id="rect5254"
     style="line-height:100%;fill:#008000;stroke:none"
     height="5.9432611"
     y="117.22452"
     x="36.721794"
     width="4.6898322" />
  <path
     d="m 109.92629,122.92651 0,-0.6935 c 0.11389,-0.24894 0.25271,-0.47297 0.41644,-0.67212 0.16375,-0.20152 0.33458,-0.38525 0.51254,-0.55121 0.18034,-0.16833 0.35831,-0.32362 0.5339,-0.46586 0.17798,-0.14463 0.33695,-0.2833 0.47695,-0.41607 0.14237,-0.13511 0.25745,-0.27029 0.34525,-0.4054 0.0878,-0.13511 0.1317,-0.27858 0.1317,-0.4303 -1e-5,-0.22283 -0.0558,-0.38762 -0.1673,-0.49431 -0.11151,-0.10665 -0.27526,-0.16001 -0.49118,-0.16001 -0.21356,0 -0.37729,0.0581 -0.49119,0.17422 -0.11154,0.11376 -0.18391,0.28568 -0.21714,0.51565 l -1.00741,-0.0568 c 0.0238,-0.19676 0.0724,-0.3817 0.14592,-0.55477 0.0735,-0.17309 0.17797,-0.32479 0.31322,-0.45518 0.13763,-0.13039 0.30847,-0.23232 0.51254,-0.30583 0.20643,-0.0759 0.45203,-0.11376 0.73678,-0.11376 0.27049,10e-6 0.51017,0.032 0.71898,0.096 0.20882,0.0616 0.3844,0.15292 0.52678,0.27382 0.14238,0.1209 0.25033,0.26908 0.3239,0.44452 0.0735,0.17309 0.11034,0.37103 0.11034,0.59388 -1e-5,0.23473 -0.0463,0.4469 -0.13879,0.63656 -0.0926,0.18968 -0.2112,0.3651 -0.35593,0.52631 -0.14476,0.15885 -0.3061,0.30821 -0.48407,0.44808 -0.1756,0.13987 -0.34644,0.27619 -0.51254,0.40896 -0.16611,0.13277 -0.31797,0.26671 -0.4556,0.40185 -0.13527,0.13511 -0.2361,0.27974 -0.30254,0.43385 h 2.3278 v 0.82148 h -3.5095"
     id="text3830"
     style="font-size:9px;font-weight:bold;text-align:start;line-height:100%;fill:#ffffff;stroke:none;font-family:Liberation Sans"
     inkscape:connector-curvature="0" />
  <path
     d="m 117.31713,121.48657 c 0,0.22329 -0.0343,0.4245 -0.10298,0.6036 -0.0665,0.17682 -0.16733,0.32796 -0.3025,0.45357 -0.13515,0.12563 -0.30357,0.22212 -0.50522,0.28959 -0.19951,0.0651 -0.43228,0.0977 -0.6983,0.0977 -0.29606,0 -0.546,-0.0407 -0.7498,-0.12211 -0.20166,-0.0814 -0.36792,-0.1884 -0.49879,-0.32099 -0.1287,-0.1349 -0.22632,-0.28724 -0.29283,-0.45706 -0.0644,-0.16979 -0.10619,-0.34192 -0.12553,-0.51638 l 0.92043,-0.087 c 0.0128,0.10467 0.0365,0.2012 0.0708,0.28959 0.0364,0.0861 0.0847,0.16048 0.14482,0.22329 0.0601,0.0628 0.133,0.11167 0.21882,0.14655 0.088,0.0323 0.19092,0.0489 0.30892,0.0489 0.21667,0 0.3851,-0.0582 0.50523,-0.17445 0.12014,-0.11628 0.18021,-0.29424 0.18021,-0.53382 0,-0.14651 -0.0291,-0.264 -0.0869,-0.3524 -0.0558,-0.0884 -0.12762,-0.15582 -0.21559,-0.20236 -0.0858,-0.0489 -0.17914,-0.0814 -0.27997,-0.0977 -0.10083,-0.0163 -0.19631,-0.0249 -0.2864,-0.0249 h -0.31536 v -0.79202 h 0.29606 c 0.0901,1e-5 0.18127,-0.009 0.27351,-0.0274 0.0944,-0.0185 0.17914,-0.0523 0.25423,-0.10118 0.0751,-0.0489 0.13623,-0.11628 0.18342,-0.20237 0.0472,-0.0884 0.0708,-0.20002 0.0708,-0.33495 0,-0.20237 -0.0525,-0.36054 -0.15767,-0.47451 -0.10298,-0.11629 -0.25422,-0.17444 -0.45373,-0.17444 -0.18665,0 -0.3379,0.0558 -0.45374,0.16747 -0.11372,0.11167 -0.17914,0.26984 -0.19631,0.47451 l -0.90414,-0.0696 c 0.0256,-0.23026 0.0837,-0.43032 0.17376,-0.60012 0.0922,-0.16979 0.20701,-0.31052 0.34433,-0.42217 0.13946,-0.11167 0.29927,-0.19423 0.47948,-0.2477 0.18021,-0.0558 0.37114,-0.0837 0.5728,-0.0837 0.26601,1e-5 0.4945,0.0348 0.68544,0.10466 0.19093,0.0698 0.34754,0.164 0.46983,0.28263 0.1223,0.11862 0.21236,0.25704 0.27031,0.41519 0.0579,0.15817 0.0869,0.32686 0.0869,0.50592 0,0.1442 -0.0195,0.27914 -0.0579,0.40472 -0.0386,0.12328 -0.0976,0.23495 -0.17699,0.33496 -0.0772,0.0977 -0.17699,0.18258 -0.29927,0.2547 -0.1223,0.0698 -0.26712,0.12211 -0.43444,0.157 v 0.0139 c 0.18662,0.0231 0.34862,0.0698 0.48592,0.13955 0.13731,0.0674 0.24992,0.15234 0.33789,0.2547 0.0879,0.10235 0.15339,0.21864 0.1963,0.34892 0.0429,0.12793 0.0644,0.264 0.0644,0.40822"
     id="text3834"
     style="font-size:9px;font-weight:bold;text-align:start;line-height:100%;fill:#ffffff;stroke:none;font-family:Liberation Sans"
     inkscape:connector-curvature="0" />
  <rect
     style="text-align:start;line-height:100%;fill:#ffffff;stroke:none"
     width="0.66732848"
     x="118.26093"
     y="119.14975"
     height="0.84053099"
     id="rect5274" />
  <rect
     style="text-align:start;line-height:100%;fill:#ffffff;stroke:none"
     width="0.66732848"
     x="118.28207"
     y="120.93099"
     height="0.84053099"
     id="rect5276" />
  <path
     d="m 119.76571,122.87464 0,-0.6935 c 0.11389,-0.24895 0.25271,-0.47297 0.41644,-0.67212 0.16375,-0.20152 0.33458,-0.38525 0.51254,-0.55121 0.18034,-0.16833 0.35831,-0.32362 0.5339,-0.46586 0.17798,-0.14463 0.33695,-0.2833 0.47695,-0.41607 0.14237,-0.13511 0.25745,-0.27029 0.34525,-0.4054 0.0878,-0.13511 0.1317,-0.27858 0.1317,-0.4303 -1e-5,-0.22283 -0.0558,-0.38762 -0.1673,-0.49431 -0.11151,-0.10665 -0.27526,-0.16001 -0.49118,-0.16001 -0.21356,0 -0.37729,0.0581 -0.49119,0.17422 -0.11154,0.11376 -0.18391,0.28568 -0.21714,0.51565 l -1.00741,-0.0568 c 0.0239,-0.19676 0.0724,-0.3817 0.14592,-0.55477 0.0735,-0.17309 0.17797,-0.32479 0.31322,-0.45518 0.13763,-0.13039 0.30847,-0.23232 0.51254,-0.30583 0.20643,-0.0759 0.45203,-0.11376 0.73678,-0.11376 0.27049,1e-5 0.51017,0.032 0.71898,0.096 0.20882,0.0616 0.3844,0.15291 0.52678,0.27381 0.14238,0.12091 0.25033,0.26909 0.3239,0.44453 0.0735,0.17309 0.11034,0.37103 0.11034,0.59388 -1e-5,0.23473 -0.0463,0.4469 -0.13879,0.63656 -0.0926,0.18968 -0.2112,0.3651 -0.35593,0.52631 -0.14476,0.15885 -0.3061,0.3082 -0.48407,0.44808 -0.1756,0.13987 -0.34644,0.27619 -0.51254,0.40896 -0.16611,0.13277 -0.31797,0.26671 -0.4556,0.40185 -0.13527,0.13511 -0.2361,0.27974 -0.30254,0.43385 h 2.3278 v 0.82147 h -3.5095"
     id="path5278"
     style="font-size:9px;font-weight:bold;text-align:start;line-height:100%;fill:#ffffff;stroke:none;font-family:Liberation Sans"
     inkscape:connector-curvature="0" />
  <path
     d="m 127.46404,121.49261 c 0,0.22329 -0.0343,0.4245 -0.10298,0.6036 -0.0665,0.17682 -0.16733,0.32796 -0.3025,0.45357 -0.13515,0.12563 -0.30356,0.22212 -0.50522,0.28959 -0.19951,0.0651 -0.43228,0.0977 -0.6983,0.0977 -0.29606,0 -0.546,-0.0407 -0.7498,-0.12211 -0.20165,-0.0814 -0.36792,-0.1884 -0.49879,-0.32099 -0.12869,-0.1349 -0.22632,-0.28725 -0.29283,-0.45706 -0.0644,-0.16979 -0.10619,-0.34192 -0.12553,-0.51638 l 0.92044,-0.087 c 0.0128,0.10467 0.0365,0.2012 0.0708,0.28959 0.0365,0.0861 0.0847,0.16048 0.14482,0.22329 0.0601,0.0628 0.133,0.11167 0.21882,0.14656 0.088,0.0323 0.19092,0.0489 0.30892,0.0489 0.21667,0 0.3851,-0.0582 0.50523,-0.17445 0.12014,-0.11628 0.18022,-0.29424 0.18022,-0.53382 -1e-5,-0.14651 -0.0291,-0.264 -0.0869,-0.3524 -0.0558,-0.0884 -0.12762,-0.15582 -0.21559,-0.20236 -0.0858,-0.0489 -0.17914,-0.0814 -0.27997,-0.0977 -0.10083,-0.0163 -0.19631,-0.0249 -0.2864,-0.0249 h -0.31536 v -0.79201 h 0.29606 c 0.0901,0 0.18127,-0.009 0.27351,-0.0274 0.0944,-0.0185 0.17915,-0.0523 0.25423,-0.10119 0.0751,-0.0489 0.13623,-0.11628 0.18342,-0.20236 0.0472,-0.0884 0.0708,-0.20003 0.0708,-0.33496 0,-0.20237 -0.0525,-0.36054 -0.15768,-0.47451 -0.10298,-0.11628 -0.25422,-0.17444 -0.45373,-0.17444 -0.18665,0 -0.3379,0.0558 -0.45374,0.16747 -0.11372,0.11167 -0.17914,0.26984 -0.19631,0.47451 l -0.90414,-0.0696 c 0.0256,-0.23025 0.0837,-0.43032 0.17376,-0.60012 0.0922,-0.16979 0.20701,-0.31051 0.34433,-0.42217 0.13946,-0.11167 0.29927,-0.19423 0.47948,-0.2477 0.18021,-0.0558 0.37114,-0.0837 0.5728,-0.0837 0.26601,1e-5 0.4945,0.0348 0.68545,0.10466 0.19092,0.0698 0.34753,0.164 0.46982,0.28263 0.1223,0.11863 0.21236,0.25704 0.27031,0.41519 0.0579,0.15817 0.0869,0.32686 0.0869,0.50592 0,0.14421 -0.0195,0.27914 -0.0579,0.40472 -0.0386,0.12329 -0.0976,0.23495 -0.17699,0.33496 -0.0772,0.0977 -0.17699,0.18258 -0.29927,0.2547 -0.1223,0.0698 -0.26712,0.12211 -0.43443,0.157 v 0.0139 c 0.18661,0.0231 0.34862,0.0698 0.48591,0.13955 0.13731,0.0674 0.24992,0.15234 0.33789,0.2547 0.0879,0.10236 0.15339,0.21864 0.1963,0.34892 0.0429,0.12794 0.0644,0.26401 0.0644,0.40822"
     id="path5280"
     style="font-size:9px;font-weight:bold;text-align:start;line-height:100%;fill:#ffffff;stroke:none;font-family:Liberation Sans"
     inkscape:connector-curvature="0" />
  <rect
     style="text-align:start;line-height:100%;fill:#ffffff;stroke:none"
     width="3.9437034"
     x="95.447853"
     y="119.00502"
     height="3.8867111"
     id="rect5282" />
  <rect
     style="text-align:start;line-height:100%;fill:#ffffff;stroke:none"
     width="3.9437034"
     x="89.704056"
     y="119.05045"
     height="3.8867111"
     id="rect5284" />
  <path
     inkscape:connector-curvature="0"
     style="text-align:start;line-height:100%;fill:#ffffff;fill-rule:evenodd;stroke:none"
     id="path5286"
     d="m 107.29236,121.11266 0.58198,-1.11247 0.57955,1.11408 z" />
  <rect
     style="line-height:100%;fill:#90d8d8;stroke:none"
     width="5.8665428"
     x="6.0050354"
     y="14.067818"
     height="7.1592526"
     id="rect5288" />
  <rect
     style="line-height:100%;fill:#90d8d8;stroke:none"
     width="5.8665428"
     x="6.0050354"
     y="28.278961"
     height="7.1592526"
     id="rect5290" />
  <rect
     style="line-height:100%;fill:#90d8d8;stroke:none"
     width="5.8665428"
     x="6.0050354"
     y="42.490101"
     height="7.1592526"
     id="rect5292" />
  <path
     inkscape:connector-curvature="0"
     style="fill:#ffffff"
     id="path4197"
     d="m 5.2318737,116.41888 c -0.028218,0 -0.050159,0.022 -0.05682,0.0555 l -0.2498909,1.22819 c -0.2066328,0.0679 -0.3993281,0.16919 -0.5795463,0.29837 L 3.9025615,117.64711 3.4650341,117.3 c -0.024436,-0.0192 -0.058892,-0.0178 -0.079546,0.007 l -0.4715637,0.57591 c -0.020073,0.0245 -0.02592,0.0608 -0.011375,0.0902 l 0.3237819,0.64518 0.2330182,0.47182 c -0.098324,0.20126 -0.1767506,0.41643 -0.2329542,0.64533 l -1.0170184,0.25686 c -0.028218,0.007 -0.051136,0.041 -0.051136,0.0763 v 0.81187 c 0,0.0345 0.023593,0.0682 0.051136,0.0763 l 0.982982,0.29133 c 0.052742,0.265 0.1364771,0.51843 0.2443171,0.74941 l -0.5739637,1.06157 c -0.016,0.0295 -0.00899,0.0652 0.011375,0.0902 l 0.4715637,0.57591 c 0.020073,0.0242 0.049748,0.032 0.073865,0.0139 l 0.8977456,-0.66615 c 0.1757673,0.1236 0.3677062,0.2255 0.5681834,0.29144 l 0.2045091,1.22145 c 0.00582,0.0344 0.033527,0.0625 0.062502,0.0625 H 5.822908 c 0.028218,0 0.050159,-0.022 0.05682,-0.0555 l 0.2498909,-1.22819 c 0.206691,-0.0679 0.3992932,-0.16915 0.5795463,-0.29837 l 0.4430546,0.34711 0.4375274,0.35386 c 0.024436,0.0192 0.058921,0.0178 0.079546,-0.007 l 0.4715637,-0.57591 c 0.00524,-0.006 0.00847,-0.0131 0.011375,-0.021 0.00844,-0.0217 0.010589,-0.0479 0,-0.0694 L 7.8284501,122.44871 7.5954319,121.9769 c 0.098295,-0.20127 0.1767506,-0.41643 0.2329542,-0.64533 l 1.0170184,-0.25687 c 0.028218,-0.007 0.051136,-0.041 0.051136,-0.0763 v -0.8188 c 0,-0.0345 -0.023593,-0.0613 -0.051136,-0.0694 l -0.982982,-0.29133 c -0.052742,-0.265 -0.1364771,-0.51844 -0.2443171,-0.74941 l 0.5739637,-1.06158 c 0.016,-0.0295 0.00899,-0.0652 -0.011374,-0.0902 l -0.4715642,-0.5759 c -0.020073,-0.0242 -0.049778,-0.032 -0.073865,-0.0139 l -0.8977454,0.66615 c -0.1757673,-0.1236 -0.3677062,-0.22553 -0.5681834,-0.29143 L 5.964828,116.48118 c -0.00582,-0.0345 -0.033527,-0.0625 -0.062502,-0.0625 H 5.2318737 z m 0.2955637,2.33844 a 1.4544875,1.776322 0 0 1 1.4545457,1.77639 1.4544875,1.776322 0 0 1 -1.4545457,1.77639 1.4544875,1.776322 0 0 1 -1.4545457,-1.77639 1.4544875,1.776322 0 0 1 1.4545457,-1.77639 z" />
  <path
     style="fill:#ffffff;stroke:none"
     id="path3014"
     d="m 62.730324,15.926736 c -21.818386,0 -39.63287,12.551259 -42.964728,31.506805 -0.01816,0.103844 -0.03718,0.245673 -0.135109,0.318251 0,0 -14.404933,11.782298 -16.2131049,13.154356 2.4051427,0.04763 14.7269039,0.212167 14.7269039,0.212167 0.302558,0.0064 0.498931,0.192343 0.540436,0.424334 1.025468,5.584237 3.421138,10.862851 7.025679,15.594278 3.119544,4.096691 7.043232,7.54303 11.484283,10.290101 -10.475179,0.132358 -18.915289,2.887189 -18.915289,6.258928 0,3.458933 8.884262,6.258927 19.725944,6.258927 10.162417,0 18.450729,-2.465045 19.455726,-5.622426 1.739311,0.181954 3.492644,0.212167 5.269259,0.212167 2.791001,0 5.549205,-0.188201 8.241661,-0.636501 0.903827,3.190608 9.355783,5.622426 19.590835,5.622426 10.84259,0 19.59084,-2.695332 19.59084,-6.152844 0,-3.457542 -8.74825,-6.258928 -19.59084,-6.258928 -0.605445,0 -1.16494,-0.01697 -1.75642,0 5.122261,-3.243901 9.475328,-7.436539 12.70027,-12.411771 2.85536,-4.397833 4.77491,-9.124473 5.53947,-14.109108 0.0372,-0.234742 0.23243,-0.418563 0.54044,-0.424334 0,0 10.45287,-0.167426 12.83537,-0.212167 -1.82628,-1.352132 -14.32157,-11.563104 -14.32157,-11.563104 -0.10147,-0.07611 -0.2512,-0.209417 -0.27022,-0.31825 C 102.76644,28.792308 84.861255,15.926736 62.730324,15.926736 z m -13.510921,6.577179 c 7.781599,0 14.051357,5.315548 14.051357,11.881354 0,0.285118 0.02335,0.568777 0,0.848668 0,-5.023742 6.177107,-9.123183 13.781139,-9.123183 7.604941,0 13.78114,4.099441 13.78114,9.123183 0,5.02588 -6.177107,9.123182 -13.78114,9.123182 l 0.540437,-0.742754 c 0,0 -4.967176,-1.113884 -9.862972,-1.697336 -0.016,-0.0098 -0.119112,0.0098 -0.135109,0 -2.639083,-1.660548 -4.323495,-4.08963 -4.323495,-6.683262 -0.199096,2.386367 -1.214214,4.573439 -2.837293,6.365011 -5.549854,0.422437 -12.565156,2.015587 -12.565156,2.015587 L 63.000542,60.481814 76.917006,44.569286 c 2.779666,1.222293 5.367316,2.770142 7.701225,4.667675 6.804402,5.52853 10.208117,16.124084 9.998081,22.91404 C 89.34139,83.823889 77.37962,90.50345 62.595431,90.50345 c -3.727471,0 -7.347131,-0.451074 -10.673628,-1.273002 -0.471758,-0.15456 -0.96685,-0.179816 -1.486201,-0.318251 -0.05927,-0.01731 -0.07605,-0.08843 -0.135109,-0.106083 -8.164617,-2.417255 -14.661403,-7.410299 -18.104634,-14.533442 -0.678443,-5.945328 1.057285,-15.706981 6.215024,-21.428871 2.424278,-2.691429 5.217809,-4.98966 8.37677,-6.789345 C 40.173442,45.0768 35.168262,40.246578 35.168262,34.385269 c 0,-6.565806 6.275206,-11.881354 14.051357,-11.881354 z m 8.106552,7.319593 c -3.063113,0 -5.674586,2.258058 -5.674586,4.879841 0,2.616027 2.611473,4.667675 5.674586,4.667675 3.06311,0 5.539478,-2.051648 5.539478,-4.667675 0,-2.621783 -2.476368,-4.879841 -5.539478,-4.879841 z m 10.2683,2.333837 c -2.110466,0 -3.918167,1.483835 -3.918167,3.288589 0,1.804757 1.806477,3.288589 3.918167,3.288589 2.108028,0 3.783058,-1.484792 3.783058,-3.288589 0,-1.805711 -1.67503,-3.288589 -3.783058,-3.288589 z"
     inkscape:connector-curvature="0" />
  <path
     inkscape:connector-curvature="0"
     style="opacity:0.9005848;fill:#ff0000;fill-opacity:1;fill-rule:evenodd;stroke:none"
     d="m 97.592252,62.072005 c -10.13419,0 -18.29273,5.607705 -18.29273,12.57333 l 0,12.573325 c 24.729628,4.03789 15.710935,3.862355 39.024498,0 l 0,-12.573325 c 0,-6.965625 -8.15858,-12.57333 -18.29274,-12.57333 z m 1.219515,6.705765 c 5.404893,0 9.756123,2.990785 9.756123,6.70579 0,0.0107 -0.006,0.0216 -0.006,0.03275 l 0.006,0 0,11.702355 -19.512248,0 0,-11.702355 0.0059,0 c -2.05e-4,-0.0107 -0.0059,-0.0214 -0.0059,-0.03275 0,-3.715005 4.351235,-6.70579 9.756125,-6.70579 z"
     id="rect3272-1"
     sodipodi:nodetypes="ssccsssssccccccss" />
  <path
     inkscape:connector-curvature="0"
     style="fill:#333333;fill-opacity:1;fill-rule:evenodd;stroke:none"
     d="m 71.909152,86.968255 0,25.146655 53.658678,0 0,-25.146655 c -25.05777,0.28544 -30.893718,0.05869 -53.658678,0 z"
     id="rect3272"
     sodipodi:nodetypes="ccccc" />
  <rect
     style="fill:#ffffff;fill-opacity:1;stroke:none"
     id="rect3099"
     width="47.555927"
     height="1.2464255"
     x="76.008156"
     y="87.733688"
     rx="0.390625"
     ry="0.25390625" />
  <path
     style="fill:url(#linearGradient3069);fill-opacity:1;stroke:none"
     d="m 73.129942,85.62347 -0.286835,25.02059 21.08275,1e-5 C 83.196242,110.32391 74.379142,105.9648 73.129942,85.62347 z"
     id="path3869"
     inkscape:connector-curvature="0"
     sodipodi:nodetypes="cccc" />
</svg>
